<svg width="32" height="32" viewBox="0 0 32 32" fill="none" xmlns="http://www.w3.org/2000/svg">
<path fill-rule="evenodd" clip-rule="evenodd" d="M26.8758 11.5C27.2274 11.5 27.5164 11.6367 27.743 11.9102C27.9383 12.1523 28.0223 12.4277 27.995 12.7363C27.9676 13.0449 27.8328 13.2969 27.5907 13.4922C26.9422 14.0234 26.4851 14.5391 26.2195 15.0391C25.9539 15.5391 25.8211 16.0742 25.8211 16.6445C25.8211 17.0742 25.909 17.6289 26.0847 18.3086C26.2605 18.9883 26.4363 19.7227 26.6121 20.5117C26.7879 21.3008 26.8758 22.0469 26.8758 22.75C26.8758 24.4219 26.1883 25.7148 24.8132 26.6289C23.4382 27.543 21.5006 28 19.0005 28H5.50005C5.08597 28 4.73245 27.8535 4.43947 27.5605C4.14649 27.2676 4 26.9141 4 26.5L4.75002 4.75C4.75002 4.58594 4.7969 4.43945 4.89065 4.31055C4.98441 4.18164 5.10941 4.08984 5.26567 4.03516C5.34379 4.01172 5.42192 4 5.50005 4C5.75787 4 5.9571 4.10156 6.09773 4.30469L9.21502 8.5H15.2855L18.4028 4.30469C18.5435 4.10156 18.7427 4 19.0005 4C19.0708 4 19.149 4.01172 19.2349 4.03516C19.3912 4.08984 19.5162 4.18164 19.6099 4.31055C19.7037 4.43945 19.7505 4.58594 19.7505 4.75L20.5006 25.6797C21.0709 25.625 21.5885 25.5352 22.0534 25.4102C22.5182 25.2852 22.9518 25.1133 23.3542 24.8945C23.7565 24.6758 24.069 24.3848 24.2917 24.0215C24.5144 23.6582 24.6257 23.2344 24.6257 22.75C24.6257 22.1016 24.4499 21.1055 24.0983 19.7617C23.7468 18.418 23.571 17.3711 23.571 16.6211C23.571 14.793 24.4343 13.1719 26.1609 11.7578C26.364 11.5859 26.6023 11.5 26.8758 11.5ZM15.6899 12.6895C15.3969 12.9824 15.2504 13.3359 15.2504 13.75C15.2504 14.1641 15.3969 14.5176 15.6899 14.8105C15.9828 15.1035 16.3364 15.25 16.7504 15.25C17.1645 15.25 17.518 15.1035 17.811 14.8105C18.104 14.5176 18.2505 14.1641 18.2505 13.75C18.2505 13.3359 18.104 12.9824 17.811 12.6895C17.518 12.3965 17.1645 12.25 16.7504 12.25C16.3364 12.25 15.9828 12.3965 15.6899 12.6895ZM6.68954 12.6895C6.39657 12.9824 6.25008 13.3359 6.25008 13.75C6.25008 14.1641 6.39657 14.5176 6.68954 14.8105C6.98252 15.1035 7.33605 15.25 7.75013 15.25C8.1642 15.25 8.51773 15.1035 8.81071 14.8105C9.10369 14.5176 9.25018 14.1641 9.25018 13.75C9.25018 13.3359 9.10369 12.9824 8.81071 12.6895C8.51773 12.3965 8.1642 12.25 7.75013 12.25C7.33605 12.25 6.98252 12.3965 6.68954 12.6895ZM11.6797 16.2929C11.2202 15.9866 10.5993 16.1108 10.2929 16.5703C9.9866 17.0298 10.1108 17.6507 10.5703 17.9571L11.6953 18.7071C12.0312 18.931 12.4688 18.931 12.8047 18.7071L13.9297 17.9571C14.3892 17.6507 14.5134 17.0298 14.2071 16.5703C13.9007 16.1108 13.2798 15.9866 12.8203 16.2929L12.25 16.6731L11.6797 16.2929Z" fill="white"/>
</svg>
